<?xml version="1.0" standalone="no"?>
<!DOCTYPE svg PUBLIC "-//W3C//DTD SVG 20010904//EN"
 "http://www.w3.org/TR/2001/REC-SVG-20010904/DTD/svg10.dtd">
<svg version="1.0" xmlns="http://www.w3.org/2000/svg"
 width="382.000000pt" height="382.000000pt" viewBox="0 0 382.000000 382.000000"
 preserveAspectRatio="xMidYMid meet">
<metadata>
Created by potrace 1.14, written by Peter Selinger 2001-2017
</metadata>
<g transform="translate(0.000000,382.000000) scale(0.100000,-0.100000)"
fill="#000000" stroke="none">
<path d="M1896 3222 c-4 -3 -12 -7 -19 -8 -7 -1 -38 -13 -69 -28 -31 -14 -62
-26 -67 -26 -6 0 -11 -4 -11 -10 0 -5 -3 -9 -7 -8 -17 4 -53 -14 -47 -24 4 -6
2 -8 -4 -4 -9 6 -59 -11 -72 -24 -3 -3 -9 -5 -15 -6 -17 -1 -90 -36 -96 -46
-3 -5 -8 -8 -10 -7 -2 2 -24 -5 -49 -16 -25 -10 -49 -19 -55 -20 -5 0 -13 -4
-17 -10 -4 -5 -11 -10 -15 -11 -4 0 -21 -7 -38 -14 -16 -7 -32 -14 -35 -15 -3
0 -21 -8 -40 -17 -104 -49 -169 -75 -174 -70 -3 3 -6 0 -6 -6 0 -7 -9 -12 -20
-12 -11 0 -20 -5 -20 -11 0 -5 -4 -7 -10 -4 -6 3 -10 1 -10 -5 0 -6 -4 -9 -9
-5 -5 3 -12 1 -16 -5 -4 -6 -11 -8 -16 -5 -5 4 -9 1 -9 -5 0 -6 -4 -9 -8 -6
-5 3 -20 -2 -33 -12 -13 -9 -28 -17 -34 -17 -19 -2 -110 -46 -117 -58 -4 -7
-8 -8 -8 -4 0 4 -10 2 -22 -4 -17 -9 -109 -12 -338 -11 -173 1 -325 -1 -337
-4 -26 -5 -27 -39 -2 -55 8 -5 10 -9 4 -9 -5 0 -3 -5 5 -10 10 -6 15 -26 15
-57 0 -50 -14 -80 -27 -59 -5 6 -8 2 -8 -11 0 -12 8 -28 18 -35 10 -7 17 -22
17 -33 -1 -23 25 -75 37 -75 4 0 8 -11 8 -25 0 -14 4 -25 8 -25 5 0 10 -21 10
-46 1 -25 6 -53 10 -62 10 -21 9 -203 -2 -220 -4 -6 -4 -12 1 -12 4 0 8 -63 8
-140 0 -77 -4 -140 -8 -140 -5 0 -5 -5 -1 -11 11 -18 11 -104 0 -112 -7 -6 -7
-10 -1 -13 12 -5 13 -284 1 -302 -4 -7 -4 -12 1 -12 4 0 8 -36 8 -80 0 -44 -4
-80 -8 -80 -4 0 -3 -8 2 -19 6 -10 8 -21 5 -24 -6 -5 -10 -50 -16 -149 -2 -21
-7 -38 -11 -38 -5 0 -7 -7 -3 -15 3 -8 1 -15 -5 -15 -6 0 -8 -4 -5 -9 4 -5 0
-12 -6 -15 -8 -4 -9 -8 -3 -11 11 -5 11 -107 1 -124 -5 -8 20 -11 81 -12 603
-4 673 -3 673 6 0 7 3 7 8 0 4 -5 16 -10 27 -10 11 0 23 5 27 10 5 7 8 7 8 0
0 -7 471 -10 1394 -10 l1394 0 0 63 c0 38 5 69 13 79 8 9 9 14 3 10 -14 -8
-37 58 -36 102 1 19 -2 39 -7 45 -4 6 -7 89 -7 183 1 109 -3 173 -9 173 -7 0
-7 3 0 8 6 4 10 109 10 277 0 168 -4 273 -10 277 -7 5 -7 8 0 8 6 0 9 60 7
166 -2 91 1 171 6 177 5 7 10 32 11 56 0 24 5 49 10 55 5 6 10 16 10 21 0 6 8
18 16 28 8 10 16 30 17 45 2 15 13 38 25 52 28 31 29 40 3 40 -12 0 -20 7 -21
18 0 9 -2 32 -4 50 -2 23 2 38 16 51 11 10 22 32 25 48 l5 30 -341 0 c-243 0
-344 3 -353 12 -6 6 -19 11 -29 11 -10 0 -18 5 -18 10 0 6 -7 10 -15 10 -8 0
-43 14 -77 30 -34 17 -67 30 -75 30 -7 0 -13 5 -13 11 0 5 -4 7 -10 4 -5 -3
-10 -1 -10 5 0 7 -7 10 -15 6 -8 -3 -15 -2 -15 3 0 9 -38 24 -53 22 -4 -1 -15
5 -23 14 -9 8 -24 15 -35 15 -10 0 -19 4 -19 9 0 5 -13 11 -29 14 -16 4 -35
12 -42 20 -8 8 -21 12 -30 10 -9 -3 -23 3 -32 11 -8 9 -23 16 -31 16 -9 0 -16
5 -16 11 0 5 -4 7 -10 4 -5 -3 -10 -1 -10 4 0 6 -3 10 -7 9 -5 -1 -28 7 -53
18 -25 10 -48 18 -52 16 -5 -1 -8 2 -8 7 0 5 -14 12 -30 16 -17 4 -36 12 -43
18 -13 13 -74 38 -94 40 -7 0 -13 4 -13 9 0 5 -4 6 -10 3 -5 -3 -10 -1 -10 4
0 6 -6 11 -12 11 -7 0 -35 11 -62 25 -27 13 -53 22 -58 19 -4 -3 -8 -1 -8 5 0
9 -26 21 -44 20 -5 0 -12 3 -15 9 -8 12 -68 32 -75 24z"/>
</g>
</svg>
